<svg width="17" height="18" viewBox="0 0 17 18" fill="none" xmlns="http://www.w3.org/2000/svg">
<path d="M1.04274 17.1435C0.76873 17.1435 0.501668 17.0349 0.305511 16.8374C0.0648879 16.5968 -0.0436723 16.2547 0.0161496 15.9181L0.753375 11.7383C0.789562 11.5282 0.892514 11.3334 1.04274 11.1832L11.3704 0.855482C12.639 -0.414532 13.8854 -0.0722929 14.5669 0.60925L16.2874 2.3298C17.2375 3.27987 17.2375 4.82242 16.2874 5.7725L5.95975 16.1002C5.80953 16.2519 5.61471 16.3534 5.40333 16.3909L1.22354 17.1268L1.04274 17.1435ZM5.22253 15.363H5.23641H5.22253Z" fill="#FFC107"/>
<path d="M13.1481 0C12.6029 0 11.9895 0.236484 11.3704 0.855534L1.04274 11.1832C0.892514 11.3335 0.789562 11.5283 0.753375 11.7383L0.0161496 15.9181C-0.0436723 16.2547 0.0648879 16.5968 0.305511 16.8375C0.316594 16.8486 0.326342 16.8583 0.337425 16.868L15.5809 1.62334L14.5656 0.607834C14.2177 0.260119 13.7198 0 13.1481 0Z" fill="#DEA806"/>
</svg>
