<svg width="25" height="25" viewBox="0 0 25 25" fill="none" xmlns="http://www.w3.org/2000/svg">
<g clip-path="url(#clip0)">
<path d="M14.8437 3.125H2.86458C1.28125 3.125 0 4.40625 0 5.98958V19.0104C0 20.5937 1.28125 21.875 2.86458 21.875H10.5521L10.7812 20.5937C10.8865 20.0104 11.1562 19.4896 11.574 19.0625L12.9281 17.7083H3.90625C3.47917 17.7083 3.125 17.3542 3.125 16.9271C3.125 16.5 3.47917 16.1458 3.90625 16.1458H13.8021C13.9896 16.1458 14.1667 16.2187 14.3021 16.3333L17.7083 12.9375V5.98958C17.7083 4.40625 16.4271 3.125 14.8437 3.125ZM13.8021 14.3229H3.90625C3.47917 14.3229 3.125 13.9687 3.125 13.5417C3.125 13.1146 3.47917 12.7604 3.90625 12.7604H13.8021C14.2292 12.7604 14.5833 13.1146 14.5833 13.5417C14.5833 13.9687 14.2292 14.3229 13.8021 14.3229ZM13.8021 10.9375H3.90625C3.47917 10.9375 3.125 10.5833 3.125 10.1562C3.125 9.72917 3.47917 9.375 3.90625 9.375H13.8021C14.2292 9.375 14.5833 9.72917 14.5833 10.1562C14.5833 10.5833 14.2292 10.9375 13.8021 10.9375Z" fill="#2196F3"/>
<path d="M12.7604 2.08333H11.6146C11.2709 0.885417 10.1667 0 8.85419 0C7.54169 0 6.43752 0.885417 6.09377 2.08333H4.94794C4.52085 2.08333 4.16669 2.4375 4.16669 2.86458V4.94792C4.16669 5.94792 4.9896 6.77083 5.9896 6.77083H11.7188C12.7188 6.77083 13.5417 5.94792 13.5417 4.94792V2.86458C13.5417 2.4375 13.1875 2.08333 12.7604 2.08333Z" fill="#1976D2"/>
<path d="M14.5833 10.1562C14.5833 10.5833 14.2292 10.9375 13.8021 10.9375H3.90625C3.47917 10.9375 3.125 10.5833 3.125 10.1562C3.125 9.72917 3.47917 9.375 3.90625 9.375H13.8021C14.2292 9.375 14.5833 9.72917 14.5833 10.1562Z" fill="white"/>
<path d="M14.5833 13.5417C14.5833 13.9688 14.2292 14.3229 13.8021 14.3229H3.90625C3.47917 14.3229 3.125 13.9688 3.125 13.5417C3.125 13.1146 3.47917 12.7604 3.90625 12.7604H13.8021C14.2292 12.7604 14.5833 13.1146 14.5833 13.5417Z" fill="white"/>
<path d="M14.3021 16.3334L12.9271 17.7084H3.90625C3.47917 17.7084 3.125 17.3542 3.125 16.9271C3.125 16.5 3.47917 16.1459 3.90625 16.1459H13.8021C13.9896 16.1459 14.1667 16.2188 14.3021 16.3334Z" fill="white"/>
<path d="M4.16667 3.125H2.86458C1.28125 3.125 0 4.40625 0 5.98958V19.0104C0 20.5937 1.28125 21.875 2.86458 21.875H8.85417V17.7083H3.90625C3.47917 17.7083 3.125 17.3542 3.125 16.9271C3.125 16.5 3.47917 16.1458 3.90625 16.1458H8.85417V14.3229H3.90625C3.47917 14.3229 3.125 13.9687 3.125 13.5417C3.125 13.1146 3.47917 12.7604 3.90625 12.7604H8.85417V10.9375H3.90625C3.47917 10.9375 3.125 10.5833 3.125 10.1562C3.125 9.72917 3.47917 9.375 3.90625 9.375H8.85417V6.77083H5.98958C4.98958 6.77083 4.16667 5.94792 4.16667 4.94792V3.125Z" fill="#1D83D4"/>
<path d="M8.85419 0C7.54169 0 6.43752 0.885417 6.09377 2.08333H4.94794C4.52085 2.08333 4.16669 2.4375 4.16669 2.86458V3.125V4.94792C4.16669 5.94792 4.9896 6.77083 5.9896 6.77083H8.85419V0Z" fill="#1667B7"/>
<path d="M8.85417 9.375H3.90625C3.47917 9.375 3.125 9.72917 3.125 10.1562C3.125 10.5833 3.47917 10.9375 3.90625 10.9375H8.85417V9.375Z" fill="#DEDEDE"/>
<path d="M8.85417 12.7604H3.90625C3.47917 12.7604 3.125 13.1146 3.125 13.5417C3.125 13.9688 3.47917 14.3229 3.90625 14.3229H8.85417V12.7604Z" fill="#DEDEDE"/>
<path d="M8.85417 16.1459H3.90625C3.47917 16.1459 3.125 16.5 3.125 16.9271C3.125 17.3542 3.47917 17.7084 3.90625 17.7084H8.85417V16.1459Z" fill="#DEDEDE"/>
<path d="M13.049 25C12.8438 25 12.6438 24.9187 12.4969 24.7708C12.3167 24.5906 12.2354 24.3344 12.2802 24.0823L12.8323 20.9521C12.8594 20.7948 12.9365 20.6489 13.049 20.5364L20.7833 12.8021C21.7333 11.851 22.6667 12.1073 23.1771 12.6177L24.4656 13.9062C25.1771 14.6177 25.1771 15.7729 24.4656 16.4844L16.7313 24.2187C16.6188 24.3323 16.4729 24.4083 16.3146 24.4364L13.1844 24.9875L13.049 25ZM16.1792 23.6666H16.1896H16.1792Z" fill="#FFC107"/>
<path d="M22.1146 12.1614C21.7063 12.1614 21.2469 12.3385 20.7833 12.8021L13.049 20.5364C12.9365 20.6489 12.8594 20.7948 12.8323 20.9521L12.2802 24.0823C12.2354 24.3344 12.3167 24.5906 12.4969 24.7708C12.5052 24.7791 12.5125 24.7864 12.5208 24.7937L23.9365 13.3771L23.1761 12.6166C22.9156 12.3562 22.5427 12.1614 22.1146 12.1614V12.1614Z" fill="#DEA806"/>
</g>
<defs>
<clipPath id="clip0">
<rect width="25" height="25" fill="white"/>
</clipPath>
</defs>
</svg>
