<svg width="40" height="40" viewBox="0 0 40 40" fill="none" xmlns="http://www.w3.org/2000/svg">
<path d="M20 40C31.0457 40 40 31.0457 40 20C40 8.9543 31.0457 0 20 0C8.9543 0 0 8.9543 0 20C0 31.0457 8.9543 40 20 40Z" fill="#7584F2"/>
<path d="M40 20C40 18.6301 39.8623 17.2925 39.5999 16L32.7627 9.16278L29.0739 12.2028L24.7727 7.90161H14.3148L9.16516 33.4947L15.0541 39.3837C16.6359 39.7861 18.293 40 20 40C31.0457 40 40 31.0457 40 20V20Z" fill="#4855B7"/>
<path d="M31.2395 7.63812L32.76 9.15867L29.3388 12.5799L27.8182 11.0594L31.2395 7.63812Z" fill="#FE8205"/>
<path d="M34.7563 15.424V17.5747H29.9171V15.424H34.7563Z" fill="#FE8205"/>
<path d="M24.9451 20.5334H10.9708V12.8981C10.9708 8.59314 14.4732 5.09064 18.7783 5.09064C23.0834 5.09064 26.5858 8.59306 26.5858 12.8981H23.3046C23.3046 10.4024 21.2741 8.37189 18.7783 8.37189C16.2825 8.37189 14.2521 10.4024 14.2521 12.8981V17.2521H24.9451V20.5334Z" fill="white"/>
<path d="M18.7783 8.37189C21.274 8.37189 23.3046 10.4024 23.3046 12.8981H26.5858C26.5858 8.59314 23.0834 5.09064 18.7783 5.09064C18.7651 5.09064 18.7519 5.09111 18.7387 5.09111V8.3729C18.752 8.37275 18.765 8.37189 18.7783 8.37189Z" fill="#E9EDF5"/>
<path d="M18.7387 17.2521H24.9451V20.5333H18.7387V17.2521Z" fill="white"/>
<path d="M9.16516 16.6702H28.3914V33.4948H9.16516V16.6702Z" fill="#FFCE00"/>
<path d="M18.7387 16.6702H28.3914V33.4947H18.7387V16.6702Z" fill="#FDBA12"/>
<path d="M21.0495 23.4186C21.0495 22.1643 20.0326 21.1475 18.7783 21.1475C17.524 21.1475 16.5071 22.1643 16.5071 23.4186C16.5071 24.1806 16.8824 24.8549 17.4581 25.2669V29.349H20.0985V25.2669C20.6742 24.8549 21.0495 24.1806 21.0495 23.4186Z" fill="#636978"/>
<path d="M18.7783 21.1475C18.765 21.1475 18.752 21.1482 18.7387 21.1485V29.349H20.0986V25.2669C20.6743 24.855 21.0495 24.1806 21.0495 23.4186C21.0495 22.1643 20.0327 21.1475 18.7783 21.1475V21.1475Z" fill="#414952"/>
</svg>
