<svg width="40" height="40" viewBox="0 0 40 40" fill="none" xmlns="http://www.w3.org/2000/svg">
<path d="M12.1875 21.9531C13.2662 21.9531 14.1406 21.0787 14.1406 20C14.1406 18.9213 13.2662 18.0469 12.1875 18.0469C11.1088 18.0469 10.2344 18.9213 10.2344 20C10.2344 21.0787 11.1088 21.9531 12.1875 21.9531Z" fill="black"/>
<path d="M26.25 29.7656C27.3287 29.7656 28.2031 28.8912 28.2031 27.8125C28.2031 26.7338 27.3287 25.8594 26.25 25.8594C25.1713 25.8594 24.2969 26.7338 24.2969 27.8125C24.2969 28.8912 25.1713 29.7656 26.25 29.7656Z" fill="black"/>
<path d="M26.25 14.1406C27.3287 14.1406 28.2031 13.2662 28.2031 12.1875C28.2031 11.1088 27.3287 10.2344 26.25 10.2344C25.1713 10.2344 24.2969 11.1088 24.2969 12.1875C24.2969 13.2662 25.1713 14.1406 26.25 14.1406Z" fill="black"/>
<path d="M20 0C8.97195 0 0 8.97195 0 20C0 31.028 8.97195 40 20 40C31.028 40 40 31.028 40 20C40 8.97195 31.028 0 20 0ZM16.4844 20C16.4844 20.3382 16.4438 20.667 16.3696 20.9829L23.2073 24.7816C23.9859 24.0001 25.0623 23.5156 26.25 23.5156C28.6193 23.5156 30.5469 25.4432 30.5469 27.8125C30.5469 30.1818 28.6193 32.1094 26.25 32.1094C23.8807 32.1094 21.9531 30.1818 21.9531 27.8125C21.9531 27.4743 21.9937 27.1455 22.0679 26.8296L15.2302 23.0309C14.4516 23.8124 13.3752 24.2969 12.1875 24.2969C9.8182 24.2969 7.89062 22.3693 7.89062 20C7.89062 17.6307 9.8182 15.7031 12.1875 15.7031C13.3752 15.7031 14.4516 16.1876 15.2302 16.9691L22.0679 13.1704C21.9937 12.8545 21.9531 12.5257 21.9531 12.1875C21.9531 9.8182 23.8807 7.89062 26.25 7.89062C28.6193 7.89062 30.5469 9.8182 30.5469 12.1875C30.5469 14.5568 28.6193 16.4844 26.25 16.4844C25.0623 16.4844 23.9859 15.9999 23.2073 15.2184L16.3696 19.0171C16.4438 19.333 16.4844 19.6618 16.4844 20V20Z" fill="black"/>
</svg>
