<svg width="40" height="40" viewBox="0 0 40 40" fill="none" xmlns="http://www.w3.org/2000/svg">
<path d="M20 0L7.4689 20L20 40C31.0457 40 40 31.0457 40 20C40 8.9543 31.0457 0 20 0Z" fill="#28ABFA"/>
<path d="M0 20C0 31.0457 8.9543 40 20 40V0C8.9543 0 0 8.9543 0 20Z" fill="#14CFFF"/>
<path d="M20 4.6875L14.8603 12.8906L20 21.0938C24.5305 21.0938 28.2031 17.4211 28.2031 12.8906C28.2031 8.36016 24.5305 4.6875 20 4.6875Z" fill="#373E9F"/>
<path d="M11.7969 12.8906C11.7969 17.4211 15.4695 21.0938 20 21.0938V4.6875C15.4695 4.6875 11.7969 8.36016 11.7969 12.8906Z" fill="#6241EA"/>
<path d="M33.1757 26.2065C31.6184 24.4467 29.3788 23.4375 27.0312 23.4375H20L15.3125 29.375L20 35.3125C25.4939 35.3125 30.5966 32.343 33.3167 27.5627L33.7313 26.8341L33.1757 26.2065Z" fill="#373E9F"/>
<path d="M12.9688 23.4375C10.6212 23.4375 8.38156 24.4467 6.8243 26.2065L6.26883 26.8342L6.68336 27.5627C9.40344 32.343 14.5061 35.3125 20 35.3125V23.4375H12.9688Z" fill="#6241EA"/>
</svg>
